<svg width="219" height="219" viewBox="0 0 219 219" fill="none" xmlns="http://www.w3.org/2000/svg">
<rect x="0.666748" width="218.333" height="218.333" rx="12" fill="#CFEDE6"/>
<g filter="url(#filter0_di_4461_779)">
<path d="M181.423 33.8418C176.992 29.1714 169.833 29.1714 165.401 33.8418L112.735 89.2297C111.157 90.8892 108.511 90.8878 106.935 89.2268L54.2662 33.722C49.8345 29.0516 42.6755 29.0516 38.2437 33.722C33.812 38.3924 33.812 45.9369 38.2437 50.6073L91.1984 106.413C92.663 107.957 92.663 110.377 91.1984 111.92L38.2437 167.726C33.812 172.396 33.812 179.941 38.2437 184.611C42.6755 189.282 49.8345 189.282 54.2662 184.611L106.932 129.11C108.509 127.447 111.158 127.448 112.735 129.11L165.401 184.611C169.833 189.282 176.992 189.282 181.423 184.611C185.855 179.941 185.855 172.396 181.423 167.726L128.469 111.92C127.004 110.377 127.004 107.957 128.469 106.413L181.423 50.6073C185.741 46.0566 185.741 38.3924 181.423 33.8418Z" fill="#60C2AA"/>
<path d="M181.677 33.6009C177.108 28.7851 169.717 28.785 165.147 33.6006L165.147 33.6009L112.482 88.9885C111.042 90.5028 108.627 90.5016 107.189 88.9858L54.5201 33.4811C49.9503 28.6653 42.5596 28.6653 37.9898 33.4811C33.4299 38.2865 33.4299 46.0427 37.9898 50.8482L90.9445 106.654C92.2809 108.063 92.2809 110.271 90.9445 111.679L37.9898 167.485C33.4299 172.291 33.4299 180.047 37.9898 184.852C42.5596 189.668 49.9503 189.668 54.5201 184.852L107.186 129.351C108.625 127.834 111.042 127.834 112.481 129.351L165.147 184.852C169.717 189.668 177.107 189.668 181.677 184.852C186.237 180.047 186.237 172.291 181.677 167.485L128.723 111.679C127.386 110.271 127.386 108.063 128.723 106.654L181.677 50.8482C186.124 46.1625 186.124 38.2865 181.677 33.6009Z" stroke="white" stroke-width="0.7"/>
</g>
<defs>
<filter id="filter0_di_4461_779" x="23.22" y="18.5193" width="175.227" height="183.295" filterUnits="userSpaceOnUse" color-interpolation-filters="sRGB">
<feFlood flood-opacity="0" result="BackgroundImageFix"/>
<feColorMatrix in="SourceAlpha" type="matrix" values="0 0 0 0 0 0 0 0 0 0 0 0 0 0 0 0 0 0 127 0" result="hardAlpha"/>
<feOffset dx="1" dy="1"/>
<feGaussianBlur stdDeviation="6"/>
<feColorMatrix type="matrix" values="0 0 0 0 0.420718 0 0 0 0 0.290978 0 0 0 0 0.338156 0 0 0 0.2 0"/>
<feBlend mode="normal" in2="BackgroundImageFix" result="effect1_dropShadow_4461_779"/>
<feBlend mode="normal" in="SourceGraphic" in2="effect1_dropShadow_4461_779" result="shape"/>
<feColorMatrix in="SourceAlpha" type="matrix" values="0 0 0 0 0 0 0 0 0 0 0 0 0 0 0 0 0 0 127 0" result="hardAlpha"/>
<feOffset dx="2" dy="2"/>
<feGaussianBlur stdDeviation="5"/>
<feComposite in2="hardAlpha" operator="arithmetic" k2="-1" k3="1"/>
<feColorMatrix type="matrix" values="0 0 0 0 0.311889 0 0 0 0 0.612384 0 0 0 0 0.54168 0 0 0 0.6 0"/>
<feBlend mode="normal" in2="shape" result="effect2_innerShadow_4461_779"/>
</filter>
</defs>
</svg>
