
<svg width="219" height="219" viewBox="0 0 219 219" fill="none" xmlns="http://www.w3.org/2000/svg" style="background-color: #eee;">
  <rect x="0.333252" y="0.666626" width="218.333" height="218.333" rx="12" fill="white"/>
  <g filter="url(#filter0_di_61_1141)">
    <path d="M181.09 34.5084C176.658 29.838 169.499 29.838 165.067 34.5084L112.402 89.8963C110.824 91.5558 108.178 91.5544 106.601 89.8934L53.9327 34.3887C49.501 29.7183 42.342 29.7183 37.9102 34.3887C33.4785 39.059 33.4785 46.6035 37.9102 51.2739L90.8649 107.08C92.3295 108.623 92.3295 111.043 90.8649 112.587L37.9102 168.393C33.4785 173.063 33.4785 180.608 37.9102 185.278C42.342 189.948 49.501 189.948 53.9327 185.278L106.598 129.776C108.176 128.114 110.824 128.114 112.402 129.776L165.067 185.278C169.499 189.948 176.658 189.948 181.09 185.278C185.522 180.608 185.522 173.063 181.09 168.393L128.135 112.587C126.671 111.043 126.671 108.623 128.135 107.08L181.09 51.2739C185.408 46.7233 185.408 39.059 181.09 34.5084Z" fill="#60C2AA"/>
    <path d="M181.344 34.2675C176.774 29.4518 169.384 29.4517 164.814 34.2672L164.813 34.2675L112.148 89.6552C110.708 91.1694 108.294 91.1682 106.855 89.6525L54.1866 34.1477C49.6169 29.3319 42.2261 29.3319 37.6563 34.1477C33.0965 38.9532 33.0965 46.7094 37.6563 51.5148L90.611 107.321C91.9474 108.729 91.9474 110.937 90.611 112.346L37.6563 168.152C33.0965 172.957 33.0965 180.713 37.6564 185.519C42.2261 190.335 49.6169 190.335 54.1866 185.519L106.852 130.017C108.292 128.5 110.708 128.5 112.148 130.017L164.813 185.519C169.383 190.335 176.774 190.335 181.344 185.519C185.904 180.713 185.904 172.957 181.344 168.152L128.389 112.346C127.053 110.937 127.053 108.729 128.389 107.321L181.344 51.5148C185.79 46.8291 185.79 38.9532 181.344 34.2675Z" stroke="white" stroke-width="0.7"/>
  </g>
</svg>
